<?xml version='1.0' encoding='iso-8859-1'?>
<!DOCTYPE svg PUBLIC '-//W3C//DTD SVG 1.1//EN' 'http://www.w3.org/Graphics/SVG/1.1/DTD/svg11.dtd'>
<svg version="1.1" xmlns="http://www.w3.org/2000/svg" viewBox="0 0 312.57 312.57" xmlns:xlink="http://www.w3.org/1999/xlink" enable-background="new 0 0 312.57 312.57">
  <g>
    <path d="m128.594,207.131l-5.059,9.536 7.214,19.138c4.696-1.783 8.393-5.877 9.418-11.17 1.555-8.03-3.614-15.793-11.573-17.504z"/>
    <circle cx="98.12" cy="35.811" r="25.906"/>
    <path d="m215.341,212.33l2.531,6.901-13.834,65.324c-1.716,8.104 3.463,16.065 11.567,17.782 1.048,0.222 2.093,0.328 3.122,0.328 6.937,0 13.165-4.839 14.66-11.896l14.264-67.357-5.512-4.751-26.798-6.331z"/>
    <circle cx="200.471" cy="35.811" r="25.907"/>
    <path d="m110.395,215.83l16.643-31.944c2.841-5.452 4.324-11.509 4.324-17.656v-79.255c0-9.665-7.835-17.501-17.501-17.501h-31.209l-31.175,3.259-31.269-24.488c-5.436-4.257-13.291-3.3-17.549,2.135-4.256,5.436-3.301,13.292 2.135,17.549l35.127,27.509c2.207,1.729 4.923,2.658 7.707,2.658 0.343,0 17.524-1.411 17.524-1.411v7.909l1.77,.271 34.708-22.609-31.995,35.163-42.357-6.477c-6.694-1.023-13.253,3.254-14.543,9.902-1.085,5.589 1.712,10.961 6.432,13.452 1.202,0.634 2.528,1.083 3.948,1.299l49.367,7.549c4.138,0.632 8.317-0.848 11.135-3.944l35.33-38.83-24.801,44.586c-0.487,0.875-1.075,1.691-1.753,2.428-4.628,5.025-11.188,7.903-18.021,7.903-1.235,0-2.481-0.095-3.704-0.282l-5.515-.843v7.801l-33.946,32.798c-4.024,3.887-5.549,9.69-3.957,15.054 1.591,5.363 6.035,9.395 11.527,10.46l30.649,5.936-.719-1.907c-2.733-7.252-2.219-15.329 1.413-22.175l13.456-25.366h13.584l-16.439,30.988c-2.018,3.804-2.304,8.291-0.785,12.32l27.47,72.878c2.266,6.011 7.975,9.714 14.039,9.714 1.758,0 3.546-0.311 5.287-0.968 7.752-2.922 11.668-11.575 8.746-19.326l-25.083-66.539z"/>
    <path d="m307.364,219.435l-42.801-36.895c-1.824-1.573-4.001-2.683-6.345-3.237l-8.856-2.092c-0.528,2.41-1.428,4.778-2.729,7.024-4.367,7.536-12.494,12.217-21.209,12.217-1.557,0-3.121-0.15-4.647-0.446-2.686-0.52-5.252-1.482-7.626-2.859l-43.21-25.041c-0.952-0.552-1.854-1.166-2.711-1.828v11.067c0.252,6.569 4.848,12.433 11.557,14.019l68.966,16.292 40.023,34.501c2.833,2.442 6.315,3.639 9.783,3.639 0.001,0 0.003,0 0.004,0 4.213,0 8.402-1.766 11.368-5.206 5.41-6.275 4.707-15.746-1.567-21.155z"/>
    <path d="m175.958,157.724l43.209,25.041c1.242,0.72 2.557,1.201 3.891,1.46 5.081,0.984 10.45-1.276 13.192-6.007 3.462-5.973 1.426-13.621-4.548-17.083l-37.411-21.681-2.912-47.452 12.891,39.365 29.169,16.904v-37.929l19.939,16.347c2.298,1.884 5.108,2.833 7.926,2.833 2.566,0 5.139-0.788 7.331-2.376l36.266-26.266c5.592-4.05 6.841-11.865 2.792-17.456-4.05-5.591-11.866-6.841-17.456-2.792l-28.461,20.613-33.463-27.435c-1.206-0.989-6.019-4.338-12.375-4.338h-31.209c-19.919,0-18.977,13.084-18.71,17.437l3.728,60.762c0.259,4.182 2.589,7.954 6.211,10.053z"/>
  </g>
</svg>
