<?xml version="1.0" encoding="iso-8859-1"?>
<!-- Generator: Adobe Illustrator 19.0.0, SVG Export Plug-In . SVG Version: 6.00 Build 0)  -->
<svg version="1.1" id="Capa_1" xmlns="http://www.w3.org/2000/svg" xmlns:xlink="http://www.w3.org/1999/xlink" x="0px" y="0px"
	 viewBox="0 0 512.001 512.001" style="enable-background:new 0 0 512.001 512.001;" xml:space="preserve">
<g>
	<g>
		<path d="M398.464,337.489c43.545-40.492,72.584-93.749,82.505-153.281c1.631-9.848-6.594-18.822-17.269-17.269
			c-50.025,8.33-96.208,30.535-133.864,63.559c5.05-81.063-23.914-169.571-61.463-224.385c-5.629-8.151-19.117-8.151-24.746,0
			c-37.088,54.14-66.601,141.901-61.462,224.385c-37.655-33.025-83.839-55.229-133.864-63.559
			c-10.585-1.558-18.911,7.36-17.269,17.269c9.921,59.531,38.96,112.788,82.505,153.281c-44.527,12.403-76.407,41.981-78.078,43.571
			c-6.166,5.891-6.166,15.805,0,21.697c54.963,52.29,130.563,68.701,205.73,19.391v74.842c0,8.297,6.514,15.012,14.811,15.012
			c8.297,0,15.012-6.714,15.012-15.012v-74.842c74.11,48.617,150.083,33.361,205.53-19.391c6.166-5.892,6.166-15.806,0.001-21.697
			C474.871,379.47,442.994,349.891,398.464,337.489z"/>
	</g>
</g>
<g>
</g>
<g>
</g>
<g>
</g>
<g>
</g>
<g>
</g>
<g>
</g>
<g>
</g>
<g>
</g>
<g>
</g>
<g>
</g>
<g>
</g>
<g>
</g>
<g>
</g>
<g>
</g>
<g>
</g>
</svg>
