<?xml version="1.0" encoding="iso-8859-1"?>
<!-- Generator: Adobe Illustrator 19.0.0, SVG Export Plug-In . SVG Version: 6.00 Build 0)  -->
<svg version="1.1" id="Layer_1" xmlns="http://www.w3.org/2000/svg" xmlns:xlink="http://www.w3.org/1999/xlink" x="0px" y="0px"
	 viewBox="0 0 512.001 512.001" style="enable-background:new 0 0 512.001 512.001;" xml:space="preserve">
<g>
	<g>
		<path d="M299.248,96.044c-0.278-1.218-0.561-2.428-0.848-3.629c-1.361-5.693-7.083-9.213-12.773-7.844
			c-5.693,1.361-9.206,7.08-7.844,12.773c0.269,1.128,0.535,2.266,0.796,3.41c1.12,4.915,5.488,8.246,10.325,8.246
			c0.78,0,1.572-0.086,2.365-0.267C296.977,107.433,300.549,101.751,299.248,96.044z"/>
	</g>
</g>
<g>
	<g>
		<path d="M473.783,285.37c-1.208-3.556-4.21-6.208-7.889-6.97c-1.938-0.402-39.635-7.954-85.464-0.081
			c3.698-3.309,7.282-6.69,10.738-10.146c57.2-57.201,76.45-129.457,77.242-132.504c0.944-3.638-0.107-7.501-2.763-10.158
			c-2.656-2.657-6.519-3.706-10.158-2.765c-3.047,0.791-75.303,20.03-132.517,77.231c-7.844,7.844-14.968,15.971-21.435,24.163
			c3.516-18.142,5.811-37.937,5.811-58.727c0-10.988-0.658-22.299-1.956-33.616c-0.667-5.815-5.919-9.999-11.739-9.322
			c-5.816,0.667-9.989,5.922-9.322,11.738c1.206,10.518,1.818,21.015,1.818,31.2c0,56.218-18.539,105.729-30.148,131.219
			c-11.609-25.491-30.148-75.001-30.148-131.219c0-56.25,18.564-105.785,30.17-131.256c4.123,9.016,9.115,21.051,13.84,35.354
			c1.835,5.558,7.827,8.577,13.389,6.74c5.558-1.835,8.576-7.83,6.74-13.388C278.548,28.214,265.68,6.151,265.139,5.229
			C263.235,1.988,259.758,0,256.001,0c-3.757,0-7.234,1.99-9.138,5.229c-1.723,2.932-42.209,72.809-42.209,160.184
			c0,20.79,2.295,40.585,5.811,58.727c-6.467-8.192-13.591-16.32-21.436-24.164c-57.213-57.199-129.469-76.438-132.517-77.229
			c-3.637-0.945-7.502,0.11-10.158,2.765c-2.656,2.657-3.708,6.521-2.763,10.158c0.792,3.047,20.04,75.303,77.242,132.504
			c3.456,3.456,7.04,6.837,10.738,10.146c-45.829-7.873-83.525-0.32-85.463,0.082c-3.679,0.762-6.681,3.414-7.889,6.97
			c-1.208,3.557-0.443,7.488,2.011,10.333c1.596,1.851,39.785,45.556,99.191,65.74c7.936,2.699,15.831,4.809,23.555,6.47
			c-41.362,17.808-66.829,49.668-67.933,51.07c-2.327,2.95-2.917,6.912-1.553,10.413c1.365,3.501,4.48,6.017,8.19,6.615
			c0.814,0.13,9.873,1.535,23.583,1.535c17.116,0,41.478-2.189,66.09-11.775c22.995-8.961,41.443-22.525,54.05-33.715v109.345
			c0,5.853,4.745,10.599,10.599,10.599s10.599-4.746,10.599-10.599V392.057c12.607,11.191,31.055,24.755,54.052,33.716
			c24.613,9.587,48.972,11.774,66.088,11.774c13.707,0,22.771-1.404,23.585-1.535c3.71-0.598,6.825-3.114,8.19-6.615
			c1.364-3.501,0.774-7.463-1.553-10.413c-1.104-1.4-26.571-33.262-67.935-51.07c7.723-1.662,15.618-3.771,23.554-6.469
			c59.409-20.185,97.597-63.891,99.193-65.741C474.228,292.86,474.992,288.928,473.783,285.37z M183.655,406.02
			c-20.663,8.049-41.512,10.111-56.542,10.271c11.177-10.053,27.924-22.643,48.586-30.698c15.303-5.966,32.406-9.384,50.822-10.162
			c2.018-0.083,3.961-0.128,5.816-0.146C221.195,385.326,204.449,397.917,183.655,406.02z M225.578,351.946
			c-0.001,0.001-0.003,0.001-0.004,0.001c-19.631,0.811-49.33-0.371-79.333-10.573c-33.149-11.264-59.481-31.103-74.888-44.761
			c20.497-1.453,53.394-1.143,86.651,10.161c10.266,3.487,20.584,8.034,30.667,13.518c18.797,10.216,33.963,22.109,44.253,31.245
			C230.627,351.699,228.173,351.84,225.578,351.946z M199.621,300.174c-24.488-13.334-45.952-29.144-63.798-46.99
			c-35.766-35.766-55.839-78.898-65.165-103.373c24.479,9.325,67.613,29.393,103.382,65.156
			c35.781,35.781,55.852,78.94,65.169,103.408C228.726,314.399,214.834,308.46,199.621,300.174z M337.96,214.968
			c35.773-35.766,78.908-55.834,103.383-65.157c-9.327,24.478-29.4,67.61-65.164,103.372c-17.846,17.846-39.311,33.656-63.798,46.99
			c-15.227,8.292-29.13,14.235-39.615,18.212C282.046,293.953,302.072,250.856,337.96,214.968z M384.924,416.324
			c-14.992-0.152-35.814-2.216-56.577-10.303c-20.69-8.062-37.452-20.67-48.631-30.73c1.789,0.018,3.662,0.063,5.605,0.142
			c18.45,0.75,35.603,4.17,50.981,10.161C356.986,393.656,373.749,406.266,384.924,416.324z M365.759,341.374
			c-30.071,10.22-59.824,11.386-79.491,10.572c0,0,0,0-0.001,0c-2.534-0.106-4.939-0.245-7.195-0.407
			c10.291-9.136,25.459-21.032,44.259-31.248c10.081-5.483,20.398-10.03,30.667-13.518c33.136-11.262,66.079-11.577,86.62-10.135
			C425.207,310.297,398.886,330.119,365.759,341.374z"/>
	</g>
</g>
<g>
</g>
<g>
</g>
<g>
</g>
<g>
</g>
<g>
</g>
<g>
</g>
<g>
</g>
<g>
</g>
<g>
</g>
<g>
</g>
<g>
</g>
<g>
</g>
<g>
</g>
<g>
</g>
<g>
</g>
</svg>
