<?xml version="1.0" encoding="iso-8859-1"?>
<!-- Generator: Adobe Illustrator 19.0.0, SVG Export Plug-In . SVG Version: 6.00 Build 0)  -->
<svg version="1.1" id="Layer_1" xmlns="http://www.w3.org/2000/svg" xmlns:xlink="http://www.w3.org/1999/xlink" x="0px" y="0px"
	 viewBox="0 0 512 512" style="enable-background:new 0 0 512 512;" xml:space="preserve">
<g>
	<path style="fill:#8FB84A;" d="M340.149,375.717c42.146,16.428,68.488,49.83,68.488,49.83s-41.993,6.766-84.14-9.651
		c-42.157-16.428-68.498-49.83-68.498-49.83s12.066-1.946,29.751-1.224C301.064,365.464,320.596,368.098,340.149,375.717z"/>
	<path style="fill:#8FB84A;" d="M458.151,133.005c0,0-18.658,71.854-74.477,127.673c-21.368,21.368-45.086,37.294-66.225,48.803
		C283.369,328.04,256,335.145,256,335.145s18.646-71.854,74.467-127.673C386.297,151.651,458.151,133.005,458.151,133.005z"/>
</g>
<g>
	<path style="fill:#B5E06C;" d="M463.746,288.779c0,0-37.216,43.14-94.578,62.629c-31.129,10.58-61.798,12.023-83.342,11.127
		c-18.155-0.755-29.828-3.169-29.828-3.169s23.631-27.391,62.268-48.387c9.848-5.356,20.669-10.286,32.321-14.242
		C407.96,277.237,463.746,288.779,463.746,288.779z"/>
	<path style="fill:#B5E06C;" d="M255.999,10.599c0,0,40.747,69.319,40.747,154.813c0,85.506-40.747,154.823-40.747,154.823
		s-40.747-69.319-40.747-154.823C215.252,79.917,255.999,10.599,255.999,10.599z"/>
</g>
<g>
	<path style="fill:#8FB84A;" d="M181.533,207.47C237.353,263.29,256,335.144,256,335.144s-27.369-7.105-61.449-25.664
		c-21.138-11.51-44.856-27.434-66.225-48.803c-55.819-55.819-74.477-127.673-74.477-127.673S125.702,151.651,181.533,207.47z"/>
	<path style="fill:#8FB84A;" d="M255.999,366.065c0,0-26.341,33.402-68.498,49.83c-42.146,16.417-84.14,9.651-84.14,9.651
		s26.341-33.402,68.488-49.83c19.488-7.597,38.944-10.23,54.235-10.875C243.856,364.108,255.999,366.065,255.999,366.065z"/>
</g>
<path style="fill:#B5E06C;" d="M193.731,310.978c38.638,20.996,62.268,48.387,62.268,48.387s-11.739,2.426-29.992,3.169
	c-21.533,0.885-52.125-0.568-83.177-11.127c-57.36-19.488-94.578-62.629-94.578-62.629s55.786-11.542,113.159,7.957
	C173.062,300.693,183.883,305.622,193.731,310.978z"/>
<path d="M277.783,97.343c0.269,1.128,0.535,2.266,0.796,3.41c1.12,4.915,5.488,8.246,10.325,8.246c0.78,0,1.572-0.086,2.365-0.267
	c5.708-1.301,9.28-6.982,7.979-12.69c-0.278-1.218-0.561-2.428-0.848-3.629c-1.362-5.693-7.082-9.213-12.773-7.844
	C279.933,85.931,276.422,91.65,277.783,97.343z"/>
<path d="M465.893,278.399c-1.938-0.402-39.635-7.954-85.464-0.081c3.698-3.309,7.282-6.69,10.738-10.146
	c57.2-57.201,76.45-129.457,77.242-132.504c0.944-3.638-0.107-7.501-2.763-10.158c-2.656-2.657-6.519-3.706-10.158-2.765
	c-3.047,0.791-75.303,20.03-132.517,77.231c-7.844,7.843-14.968,15.971-21.435,24.163c3.516-18.142,5.811-37.937,5.811-58.727
	c0-10.988-0.658-22.299-1.956-33.616c-0.667-5.815-5.919-9.999-11.739-9.322c-5.816,0.667-9.989,5.922-9.322,11.738
	c1.206,10.518,1.818,21.015,1.818,31.2c0,56.218-18.539,105.729-30.148,131.219c-11.609-25.491-30.148-75.001-30.148-131.219
	c0-56.25,18.564-105.785,30.17-131.256c4.123,9.016,9.115,21.051,13.84,35.354c1.835,5.558,7.827,8.577,13.389,6.74
	c5.558-1.835,8.576-7.83,6.74-13.388C278.547,28.213,265.679,6.15,265.138,5.228C263.233,1.988,259.756,0,255.999,0
	c-3.757,0-7.234,1.989-9.138,5.229c-1.723,2.932-42.209,72.809-42.209,160.184c0,20.79,2.295,40.585,5.811,58.727
	c-6.467-8.192-13.592-16.32-21.436-24.164c-57.213-57.2-129.468-76.439-132.516-77.23c-3.637-0.945-7.502,0.11-10.158,2.765
	c-2.656,2.657-3.708,6.521-2.763,10.158c0.792,3.047,20.04,75.303,77.242,132.504c3.456,3.456,7.04,6.837,10.738,10.146
	c-45.829-7.873-83.525-0.32-85.464,0.082c-3.679,0.762-6.681,3.414-7.889,6.97c-1.208,3.557-0.443,7.488,2.011,10.333
	c1.596,1.851,39.785,45.556,99.191,65.74c7.936,2.699,15.831,4.809,23.555,6.47c-41.362,17.808-66.829,49.668-67.933,51.07
	c-2.327,2.95-2.917,6.912-1.553,10.413c1.365,3.501,4.48,6.017,8.19,6.615c0.814,0.13,9.873,1.535,23.584,1.535
	c17.116,0,41.478-2.189,66.09-11.775c22.995-8.961,41.443-22.525,54.05-33.715v109.345c0,5.853,4.745,10.599,10.599,10.599
	c5.854,0,10.599-4.746,10.599-10.599V392.056c12.607,11.191,31.055,24.755,54.052,33.716c24.613,9.587,48.972,11.774,66.088,11.774
	c13.707,0,22.771-1.404,23.585-1.535c3.71-0.598,6.825-3.114,8.19-6.615c1.364-3.501,0.774-7.463-1.553-10.413
	c-1.104-1.4-26.572-33.262-67.935-51.07c7.723-1.662,15.618-3.771,23.554-6.469c59.409-20.185,97.597-63.891,99.193-65.741
	c2.454-2.845,3.219-6.776,2.011-10.333C472.574,281.813,469.572,279.161,465.893,278.399z M337.959,214.967
	c35.773-35.766,78.908-55.834,103.383-65.157c-9.327,24.478-29.4,67.61-65.164,103.372c-17.846,17.846-39.311,33.656-63.798,46.99
	l0,0c-15.227,8.292-29.13,14.235-39.615,18.212C282.045,293.951,302.071,250.855,337.959,214.967z M70.657,149.81
	c24.479,9.325,67.613,29.393,103.382,65.156c35.781,35.781,55.852,78.94,65.169,103.408c-10.483-3.977-24.374-9.916-39.587-18.201
	l0,0c-24.488-13.334-45.952-29.144-63.798-46.99C100.054,217.417,79.982,174.285,70.657,149.81z M71.352,296.612
	c20.497-1.453,53.394-1.143,86.651,10.161c10.267,3.487,20.584,8.034,30.667,13.518c18.797,10.216,33.963,22.109,44.253,31.245
	c-2.297,0.162-4.751,0.303-7.346,0.409c-0.001,0.001-0.003,0.001-0.004,0.001c-19.631,0.811-49.33-0.371-79.333-10.573
	C113.09,330.109,86.758,310.27,71.352,296.612z M183.654,406.019c-20.663,8.049-41.512,10.111-56.542,10.271
	c11.177-10.053,27.924-22.643,48.586-30.698c15.303-5.966,32.406-9.385,50.822-10.162c2.018-0.083,3.961-0.128,5.816-0.146
	C221.194,385.325,204.448,397.916,183.654,406.019z M328.346,406.02c-20.69-8.062-37.452-20.67-48.631-30.73
	c1.789,0.018,3.662,0.063,5.605,0.142c18.45,0.75,35.603,4.17,50.981,10.161c20.685,8.062,37.447,20.672,48.622,30.73
	C369.931,416.171,349.109,414.107,328.346,406.02z M365.758,341.373c-30.071,10.22-59.824,11.386-79.491,10.572c0,0,0,0-0.001,0
	c-2.534-0.106-4.939-0.245-7.195-0.407c10.291-9.136,25.459-21.032,44.259-31.248c10.081-5.483,20.398-10.03,30.667-13.518
	c33.136-11.262,66.079-11.577,86.62-10.135C425.206,310.296,398.885,330.117,365.758,341.373z"/>
<g>
</g>
<g>
</g>
<g>
</g>
<g>
</g>
<g>
</g>
<g>
</g>
<g>
</g>
<g>
</g>
<g>
</g>
<g>
</g>
<g>
</g>
<g>
</g>
<g>
</g>
<g>
</g>
<g>
</g>
</svg>
