<?xml version="1.0" encoding="iso-8859-1"?>
<!-- Generator: Adobe Illustrator 19.0.0, SVG Export Plug-In . SVG Version: 6.00 Build 0)  -->
<svg version="1.1" id="Capa_1" xmlns="http://www.w3.org/2000/svg" xmlns:xlink="http://www.w3.org/1999/xlink" x="0px" y="0px"
	 viewBox="0 0 512 512" style="enable-background:new 0 0 512 512;" xml:space="preserve">
<g>
	<g>
		<path d="M509.69,305.649c2.298-2.241,2.953-5.678,1.644-8.609c-1.309-2.93-4.291-4.737-7.51-4.519
			c-3.222,0.217-79.732,5.665-149.638,36.901c-7.161,3.2-14.152,6.662-20.99,10.327c11.315-15.438,21.947-31.778,31.792-48.91
			c48.163-83.792,72.002-176.965,73.222-181.813c0.182-0.66,0.277-1.345,0.277-2.038c0-3.61-2.523-6.723-6.053-7.482
			c-2.617-0.566-5.263,0.288-7.062,2.108c-3.626,3.537-72.144,71.06-120.28,154.794c-4.627,8.051-9.012,16.196-13.177,24.395
			c1.464-18.187,1.932-34.456,1.932-47.758c0-31.683-2.476-66.018-7.359-102.053c-0.568-4.194-4.444-7.134-8.62-6.564
			c-4.193,0.568-7.132,4.428-6.564,8.621c4.789,35.355,7.219,68.998,7.219,99.995c0,73.541-13.8,128.315-22.532,155.607
			c-8.732-27.248-22.512-81.928-22.512-155.607c0-73.279,13.683-145.235,22.535-184.112c3.531,15.457,7.82,36.117,11.685,59.925
			c0.677,4.176,4.603,7.013,8.791,6.336c4.176-0.678,7.012-4.615,6.335-8.791c-8.614-53.063-19.348-90.902-19.457-91.278
			c-0.94-3.29-3.945-5.557-7.367-5.557c-3.421,0-6.428,2.268-7.368,5.557c-0.304,1.067-30.479,107.948-30.479,217.921
			c0,16.974,0.725,32.93,1.921,47.737c-4.161-8.192-8.543-16.328-13.167-24.374C159.211,173.436,91.501,106.382,86.744,101.725
			c-1.852-1.961-4.658-2.845-7.378-2.183c-3.436,0.834-5.854,3.911-5.854,7.445c0,0.704,0.098,1.4,0.285,2.069
			c1.31,5.2,25.15,98.161,73.213,181.782c9.846,17.131,20.478,33.473,31.795,48.911c-6.838-3.666-13.83-7.128-20.991-10.328
			C87.909,298.185,11.4,292.737,8.176,292.52c-3.209-0.219-6.199,1.59-7.51,4.519c-1.309,2.931-0.654,6.367,1.644,8.609
			c1.056,1.032,26.317,25.555,64.336,51.291c3.503,2.372,8.268,1.455,10.64-2.05c2.372-3.504,1.455-8.268-2.05-10.64
			c-18.228-12.339-33.597-24.549-44.5-33.764c27.951,3.923,76.347,13.053,120.826,32.927c20.742,9.268,40.122,20.626,57.622,33.758
			c10.05,11.147,18.95,19.892,25.967,26.336c-11.1-0.608-26.261-2.279-44.123-6.408c-18.616-4.303-37.168-10.558-55.143-18.592
			c-13.174-5.887-26.826-13.086-40.58-21.399c-3.624-2.188-8.333-1.027-10.522,2.595c-2.189,3.622-1.028,8.332,2.594,10.521
			c14.292,8.638,28.509,16.132,42.255,22.274c9.92,4.434,20.013,8.336,30.198,11.714c-45.92,16.495-80.954,52.032-82.503,53.62
			c-1.944,1.994-2.654,4.886-1.852,7.554c0.801,2.667,2.988,4.69,5.71,5.282c1.398,0.304,22.181,4.715,49.474,4.715
			c17.455,0,37.573-1.804,56.983-7.641c28.755-8.642,48.674-23.928,60.696-35.795v62.825c0,4.232,3.43,7.662,7.662,7.662
			c4.233,0,7.662-3.431,7.662-7.662v-62.823c12.022,11.866,31.941,27.153,60.695,35.795c19.415,5.836,39.527,7.641,56.984,7.641
			c27.289,0,48.078-4.41,49.474-4.715c2.722-0.593,4.909-2.614,5.71-5.282c0.802-2.667,0.093-5.56-1.852-7.554
			c-1.549-1.589-36.583-37.125-82.502-53.62c10.183-3.376,20.276-7.28,30.195-11.713
			C452.272,361.263,507.379,307.904,509.69,305.649z M220.147,366.446c-0.036-0.041-0.073-0.082-0.109-0.122
			c-22.08-24.6-42.18-52.566-59.74-83.121c-31.594-54.967-52.486-114.044-63.183-148.439
			c24.412,26.687,65.143,74.717,96.508,129.279c12.973,22.575,24.116,45.843,33.135,69.168c2.168,12.296,4.505,23.033,6.71,32.015
			c1.941,7.908,3.879,14.914,5.695,20.986C233.582,380.815,227.15,374.237,220.147,366.446z M183.232,453.067
			c-30.777,9.253-64.476,7.326-83.49,5.02c14.57-12.398,41.584-32.559,72.427-41.832c5.561-1.673,11.248-2.969,16.924-3.888
			c21.114,4.765,38.487,6.312,50.35,6.688C229.053,429.735,210.529,444.864,183.232,453.067z M278.534,365.227
			c2.663-10.856,4.879-21.584,6.726-32.059c9.017-23.314,20.153-46.567,33.117-69.124c31.366-54.562,72.098-102.595,96.509-129.28
			c-10.697,34.395-31.589,93.472-63.183,148.439c-17.56,30.555-37.661,58.522-59.739,83.121c-0.037,0.041-0.074,0.081-0.109,0.122
			c-7.011,7.799-13.442,14.377-19.019,19.772C274.654,380.146,276.593,373.137,278.534,365.227z M412.244,458.088
			c-19.019,2.306-52.71,4.228-83.476-5.021c-27.299-8.203-45.825-23.335-56.211-34.011c11.863-0.377,29.236-1.925,50.35-6.688
			c5.677,0.919,11.364,2.215,16.927,3.888C370.605,425.507,397.651,445.683,412.244,458.088z M320.975,397.098
			c-17.86,4.127-33.021,5.799-44.12,6.408c7.01-6.439,15.904-15.179,25.963-26.336c17.501-13.132,36.881-24.491,57.621-33.758
			c44.471-19.87,92.853-29,120.806-32.924c-21.557,18.197-60.608,48.127-105.13,68.02
			C358.142,386.541,339.59,392.795,320.975,397.098z"/>
	</g>
</g>
<g>
</g>
<g>
</g>
<g>
</g>
<g>
</g>
<g>
</g>
<g>
</g>
<g>
</g>
<g>
</g>
<g>
</g>
<g>
</g>
<g>
</g>
<g>
</g>
<g>
</g>
<g>
</g>
<g>
</g>
</svg>
