<?xml version="1.0" encoding="iso-8859-1"?>
<!-- Generator: Adobe Illustrator 19.0.0, SVG Export Plug-In . SVG Version: 6.00 Build 0)  -->
<svg version="1.1" id="Layer_1" xmlns="http://www.w3.org/2000/svg" xmlns:xlink="http://www.w3.org/1999/xlink" x="0px" y="0px"
	 viewBox="0 0 512 512" style="enable-background:new 0 0 512 512;" xml:space="preserve">
<g>
	<g>
		<path d="M512,355.975c0,0-63.51-36.67-141.855-36.67c-4.201,0-8.357,0.111-12.465,0.311c6.563-5.331,13.04-11.11,19.306-17.376
			c55.397-55.397,73.175-127.438,73.175-127.438s-72.039,17.778-127.438,73.175c-9.876,9.876-18.55,20.281-26.146,30.712
			c4.113-23.396,6.817-48.943,6.817-75.706C303.393,90.879,256,0,256,0s-47.393,90.879-47.393,202.984
			c0,26.763,2.705,52.311,6.817,75.706c-7.598-10.431-16.272-20.836-26.146-30.712C133.879,192.58,61.84,174.802,61.84,174.802
			s17.778,72.041,73.175,127.438c6.265,6.265,12.743,12.044,19.306,17.376c-4.108-0.199-8.264-0.311-12.465-0.311
			C63.51,319.304,0,355.975,0,355.975s63.51,36.67,141.855,36.67c17.394,0,34.049-1.813,49.447-4.626
			c-0.612,0.589-1.221,1.183-1.825,1.788c-36.786,36.786-44.286,88.929-44.286,88.929s52.143-7.5,88.929-44.286
			c1.804-1.804,3.519-3.653,5.185-5.523V512h33.391v-83.072c1.665,1.87,3.38,3.719,5.185,5.523
			c36.786,36.786,88.929,44.286,88.929,44.286s-7.5-52.143-44.286-88.929c-0.604-0.604-1.213-1.2-1.825-1.788
			c15.398,2.813,32.053,4.626,49.447,4.626C448.49,392.645,512,355.975,512,355.975z"/>
	</g>
</g>
<g>
</g>
<g>
</g>
<g>
</g>
<g>
</g>
<g>
</g>
<g>
</g>
<g>
</g>
<g>
</g>
<g>
</g>
<g>
</g>
<g>
</g>
<g>
</g>
<g>
</g>
<g>
</g>
<g>
</g>
</svg>
