<?xml version="1.0" encoding="iso-8859-1"?>
<!-- Generator: Adobe Illustrator 19.0.0, SVG Export Plug-In . SVG Version: 6.00 Build 0)  -->
<svg version="1.1" id="Capa_1" xmlns="http://www.w3.org/2000/svg" xmlns:xlink="http://www.w3.org/1999/xlink" x="0px" y="0px"
	 viewBox="0 0 512 512" style="enable-background:new 0 0 512 512;" xml:space="preserve">
<g>
	<g>
		<path d="M479.528,211.735c-1.673-3.843-6.165-5.618-10.008-3.934c-3.853,1.673-5.618,6.155-3.945,10.008l24.063,55.285
			c21.554,49.504-11.084,107.038-65.912,110.986h-0.001v-86.115l30.401-23.031c3.348-2.536,4.005-7.306,1.469-10.654
			c-2.536-3.347-7.306-4.007-10.655-1.469l-21.216,16.072v-62.517c0-4.2-3.404-7.605-7.605-7.605c-4.201,0-7.605,3.405-7.605,7.605
			v105.879c-19.515-24.202-29.252-36.398-32.619-40.292c5.163-23.029,3.672-48.008-5.904-71.78v-0.01l34.984-80.392
			c4.216-9.725,18.029-9.821,22.288,0l26.172,60.142c1.683,3.853,6.165,5.618,10.008,3.934c3.853-1.673,5.618-6.155,3.945-9.998
			l-26.172-60.152c-9.527-21.901-40.625-21.969-50.195,0l-29.305,67.342l-35.369-81.285c-1.683-3.853-6.165-5.618-10.008-3.934
			c-3.853,1.673-5.618,6.155-3.945,10.008c0.01,0.022,0.017,0.04,0.025,0.059c0,0,0.001,0.003,0.005,0.012
			c0.002,0.006,0.005,0.012,0.007,0.017c-0.001-0.001-0.001-0.002-0.001-0.003c0.009,0.021,0.025,0.057,0.049,0.112
			c-0.017-0.039-0.033-0.077-0.045-0.103c0.026,0.059,0.046,0.107,0.062,0.143c0.006,0.013,0.011,0.026,0.018,0.041
			c-0.001-0.002-0.002-0.005-0.003-0.007c0.002,0.006,0.006,0.013,0.008,0.018s0.005,0.011,0.007,0.016
			c0.013,0.03,0.019,0.045,0.017,0.039c0.853,1.959,6.927,15.918,42.145,96.85c16.956,38.947,8.847,82.2-16.356,111.756v0.01
			c-18.108,21.283-44.475,34.903-74.014,36.323V245.232l40.556-30.724c3.348-2.536,4.005-7.306,1.469-10.654
			c-2.536-3.348-7.306-4.007-10.655-1.469l-31.371,23.766v-86.169c0-4.2-3.404-7.605-7.605-7.605c-4.2,0-7.605,3.405-7.605,7.605
			v144.698l-42.451-53.57c-2.609-3.293-7.394-3.846-10.684-1.237c-3.292,2.608-3.845,7.392-1.237,10.684
			c32.562,40.909,48.183,60.772,54.372,68.482v52.086c-8.062-0.396-15.991-1.693-23.597-3.863c-4.036-1.156-8.244,1.176-9.4,5.212
			c-1.156,4.046,1.186,8.254,5.222,9.41c8.954,2.555,18.293,4.056,27.774,4.462v128.052c0,4.2,3.405,7.605,7.605,7.605
			c4.201,0,7.605-3.405,7.605-7.605V376.333c25.219-1.065,48.876-9.897,68.295-25.29c15.111,27.299,42.819,46.276,75.899,48.268
			v105.084c0,4.2,3.404,7.605,7.605,7.605c4.201,0,7.605-3.405,7.605-7.605V399.311h0.001c50.465-3.038,87.805-45.642,87.805-94.376
			C511.531,274.187,498.286,258.73,479.528,211.735z M408.515,384.08h-0.001c-28.454-2.048-52.394-19.125-64.37-43.451
			c11.03-11.194,20.531-25.69,26.606-41.549c20.279,25.528,32.502,41.056,37.765,47.706V384.08z"/>
	</g>
</g>
<g>
	<g>
		<path d="M314.21,81.858l-26.892-61.785c-11.647-26.782-49.575-26.747-61.207,0l-75.089,172.548l-29.995-68.924
			c-9.566-21.964-40.674-21.909-50.195,0L8.469,267.02c-26.3,60.373,15.363,128.418,79.853,132.301v105.074
			c0,4.2,3.405,7.605,7.605,7.605s7.605-3.405,7.605-7.605V399.321c2.163-0.275,11.836-0.481,24.41-4.786
			c3.975-1.349,6.104-5.679,4.746-9.654c-1.359-3.975-5.679-6.094-9.654-4.736c-9.619,3.279-16.358,3.498-19.502,3.924v-86.104
			c31.771-24.319,30.96-22.901,32.328-25.183c0.062,0.199,3.087,35.825,32.339,66.711c-4.979,10.424-12.179,19.794-21.153,27.206
			c-3.245,2.677-3.701,7.463-1.024,10.708c2.677,3.235,7.463,3.691,10.708,1.024c9.471-7.828,17.279-17.482,23.059-28.21
			c3.772,3.062,7.747,5.902,11.915,8.498c1.247,0.781,2.637,1.156,4.005,1.156c7.622,0,10.512-10.023,4.036-14.065
			c-36.97-23.067-57.106-68.192-47.578-112.426c3.139-14.667,0.568-6.565,87.886-207.248c6.367-14.597,26.946-14.614,33.321,0
			l26.882,61.795c1.683,3.853,6.165,5.618,10.008,3.934C314.119,90.194,315.883,85.712,314.21,81.858z M134.888,263.671
			c-2.628-2.809-7.006-3.234-10.139-0.86l-21.216,16.073v-62.518c0-4.2-3.405-7.605-7.605-7.605c-4.2,0-7.605,3.405-7.605,7.605
			v105.879l-29.395-37.093c-2.609-3.293-7.393-3.845-10.684-1.237c-3.292,2.608-3.845,7.392-1.237,10.684
			c42.427,53.423,40.018,50.783,41.316,51.82v37.661c-54.66-3.936-87.55-61.284-65.91-110.986l62.363-143.323
			c4.255-9.764,18.054-9.789,22.299,0l35.714,82.066C136.227,228.8,133.674,246.551,134.888,263.671z"/>
	</g>
</g>
<g>
</g>
<g>
</g>
<g>
</g>
<g>
</g>
<g>
</g>
<g>
</g>
<g>
</g>
<g>
</g>
<g>
</g>
<g>
</g>
<g>
</g>
<g>
</g>
<g>
</g>
<g>
</g>
<g>
</g>
</svg>
