<?xml version="1.0" encoding="iso-8859-1"?>
<!-- Generator: Adobe Illustrator 19.0.0, SVG Export Plug-In . SVG Version: 6.00 Build 0)  -->
<svg version="1.1" id="Layer_1" xmlns="http://www.w3.org/2000/svg" xmlns:xlink="http://www.w3.org/1999/xlink" x="0px" y="0px"
	 viewBox="0 0 511.998 511.998" style="enable-background:new 0 0 511.998 511.998;" xml:space="preserve">
<g>
	<g>
		<path d="M174.423,337.761c-4.576-3.509-11.136-2.641-14.649,1.933c-0.003,0.004-0.073,0.095-0.076,0.099
			c-3.504,4.576-2.622,11.1,1.948,14.612c1.891,1.454,4.124,2.156,6.344,2.156c3.141,0,6.252-1.407,8.315-4.081
			c0.008-0.01,0.053-0.07,0.062-0.08C179.872,347.819,178.999,341.271,174.423,337.761z"/>
	</g>
</g>
<g>
	<g>
		<path d="M268.018,178.31c-4.091-4.07-10.707-4.052-14.777,0.04l-0.143,0.141c-17.829,17.241-36.702,55.644-53.357,89.535
			c-8.141,16.566-15.83,32.214-23.502,45.928c-2.817,5.035-1.018,11.403,4.019,14.22c1.614,0.902,3.366,1.331,5.092,1.331
			c3.661,0,7.215-1.927,9.128-5.35c7.943-14.2,15.752-30.091,24.022-46.92c15.111-30.748,33.916-69.015,49.13-83.727
			c0.143-0.138,0.285-0.279,0.427-0.421C272.128,188.996,272.11,182.38,268.018,178.31z"/>
	</g>
</g>
<g>
	<g>
		<path d="M505.621,51.717c-10.105-4.275-22.59-6.629-35.151-6.629c-30.333,0-58.078,15.718-73.796,40.941
			c-18.307-12.145-39.857-18.5-62.44-18.146c-28.952,0.43-57.669,11.671-80.86,31.652c-26.053,22.445-49.939,68.381-77.597,121.57
			C133.888,301.663,81.756,401.92,5.24,445.922c-3.925,2.258-5.95,6.787-5.014,11.217c0.935,4.43,4.617,7.754,9.121,8.232
			c8.081,0.858,18.306,1.539,30.381,1.539c36.018,0,88.501-6.068,149.667-31.642c81.077-33.898,156.799-92.747,225.063-174.91
			c35.261-42.44,40.706-96.793,16.447-138.204c9.215-16.648,26.78-27.157,46.08-27.157c7.114,0,14.009,1.391,20.495,4.135
			c3.227,1.366,6.924,1.023,9.843-0.914c2.92-1.936,4.676-5.206,4.676-8.709V61.34C512,57.143,509.487,53.352,505.621,51.717z
			 M398.385,247.004c-66.089,79.544-139.114,136.4-217.05,168.985c-56.652,23.687-105.168,29.738-138.948,30.023
			c67.106-52.142,113.671-141.684,151.932-215.264c22.317-42.918,42.086-80.928,61.429-103.804h66.445l-8.853,53.475
			c-0.583,3.523,0.673,7.099,3.331,9.484c2.658,2.385,6.35,3.245,9.789,2.286l59.959-16.747l18.924,62.315
			C403.194,240.898,400.889,243.989,398.385,247.004z M419.008,210.839l-15.562-51.246c-1.65-5.433-7.338-8.556-12.808-7.028
			l-54.001,15.083l8.186-49.448c0.502-3.028-0.354-6.124-2.34-8.465c-1.985-2.342-4.9-3.691-7.968-3.691H279.37
			c17.733-11.65,37.261-17.486,56.283-17.486c23.309,0,45.855,8.756,63.38,26.281C424.294,140.1,430.914,176.605,419.008,210.839z
			 M417.676,104.127c-1.248-1.378-2.536-2.733-3.866-4.064c-0.246-0.246-0.497-0.484-0.745-0.726
			c11.659-20.472,33.472-33.35,57.404-33.35c7.127,0,14.339,0.982,20.633,2.761v6.702c-4.618-0.898-9.333-1.35-14.116-1.35
			C453.225,74.099,431.345,85.5,417.676,104.127z"/>
	</g>
</g>
<g>
</g>
<g>
</g>
<g>
</g>
<g>
</g>
<g>
</g>
<g>
</g>
<g>
</g>
<g>
</g>
<g>
</g>
<g>
</g>
<g>
</g>
<g>
</g>
<g>
</g>
<g>
</g>
<g>
</g>
</svg>
