<?xml version="1.0" encoding="iso-8859-1"?>
<!-- Generator: Adobe Illustrator 19.0.0, SVG Export Plug-In . SVG Version: 6.00 Build 0)  -->
<svg version="1.1" id="Capa_1" xmlns="http://www.w3.org/2000/svg" xmlns:xlink="http://www.w3.org/1999/xlink" x="0px" y="0px"
	 viewBox="0 0 512 512" style="enable-background:new 0 0 512 512;" xml:space="preserve">
<g>
	<g>
		<path d="M496.077,300.689c21.231-25.894,21.231-63.481,0-89.374c-5.979-7.293-6.864-17.322-2.255-25.549
			c8.543-15.247,6.021-33.05-6.426-45.354c-12.403-12.262-30.171-14.568-45.264-5.883c-25.117,14.457-44.468,33.83-56.759,56.643
			c-6.213-12.379-14.234-23.913-23.932-34.23c-2.839-3.019-7.584-3.164-10.604-0.328c-3.018,2.837-3.165,7.584-0.328,10.604
			c4.388,4.668,8.388,9.614,11.996,14.794L182.073,362.445c-14.157-9.864-26.263-22.473-35.538-37.054l178.896-178.896
			c2.222,1.414,4.421,2.877,6.569,4.434c3.355,2.432,8.044,1.681,10.476-1.673c2.431-3.355,1.682-8.045-1.673-10.476
			c-3.989-2.889-8.106-5.536-12.317-7.982c-0.259-0.175-0.527-0.33-0.802-0.469c-21.016-12.033-44.594-18.516-69.113-18.938
			c-0.223-0.014-0.447-0.019-0.671-0.013c-0.628-0.008-1.253-0.036-1.882-0.036c-56.495,0-105.521,32.558-129.324,79.891
			c-12.29-22.838-31.652-42.233-56.79-56.702c-15.093-8.687-32.86-6.379-45.264,5.883c-12.446,12.304-14.969,30.106-6.426,45.353
			c4.609,8.228,3.724,18.257-2.255,25.549C1.889,228.473-3.298,251.58,2.085,273.121c0.852,3.409,3.911,5.685,7.272,5.685
			c0.602,0,1.214-0.073,1.824-0.226c4.02-1.004,6.463-5.077,5.459-9.096c-4.238-16.959-0.156-35.15,10.92-48.657
			c9.921-12.101,11.39-28.74,3.742-42.393c-6.258-11.169-1.818-21.714,3.885-27.351c5.941-5.873,16.216-9.889,27.233-3.55
			c18.852,10.851,43.712,30.415,56.465,62.387c-2.68,7.954-4.683,16.215-5.946,24.715l-42.92-24.85
			c-3.587-2.076-8.174-0.852-10.25,2.732c-2.076,3.586-0.853,8.174,2.732,10.249l44.449,25.734H55.634
			c-4.144,0-7.501,3.357-7.501,7.501c0,4.144,3.357,7.501,7.501,7.501h51.315l-44.448,25.734c-3.586,2.075-4.81,6.664-2.732,10.249
			c1.39,2.401,3.909,3.744,6.498,3.744c1.275,0,2.568-0.325,3.752-1.011l42.92-24.85c1.264,8.499,3.266,16.761,5.946,24.715
			c-12.753,31.972-37.612,51.537-56.465,62.387c-11.02,6.34-21.29,2.323-27.233-3.551c-5.703-5.637-10.143-16.182-3.885-27.351
			c7.648-13.652,6.18-30.292-3.745-42.397c-0.863-1.052-1.703-2.157-2.496-3.286c-2.383-3.389-7.063-4.204-10.451-1.822
			c-3.389,2.383-4.205,7.061-1.822,10.451c1.008,1.433,2.075,2.837,3.171,4.173c5.978,7.293,6.864,17.322,2.255,25.549
			c-8.543,15.247-6.021,33.05,6.426,45.354c7.409,7.324,16.729,11.097,26.253,11.097c6.42,0,12.934-1.716,19.011-5.214
			c25.139-14.469,44.5-33.863,56.79-56.702c1.087,2.161,2.225,4.293,3.416,6.391c0.236,0.568,0.551,1.11,0.933,1.618
			c11.628,19.89,27.86,36.773,47.233,49.167c0.473,0.384,0.984,0.695,1.516,0.947c22.148,13.788,48.271,21.767,76.227,21.767
			c56.495,0,105.521-32.558,129.324-79.891c12.29,22.838,31.652,42.233,56.79,56.702c6.078,3.498,12.59,5.214,19.011,5.214
			c9.522,0,18.845-3.773,26.253-11.097c12.446-12.304,14.969-30.106,6.426-45.354C489.213,318.01,490.099,307.982,496.077,300.689z
			 M238.881,127.477L127.493,238.865C135.161,181.051,181.067,135.145,238.881,127.477z M126.469,261.108l134.666-134.666
			c17.739,0.683,34.874,4.942,50.649,12.481L138.967,311.741C131.582,296.296,127.172,279.17,126.469,261.108z M264.724,385.361
			l29.471-29.471c2.929-2.93,2.929-7.679,0-10.609c-2.93-2.927-7.679-2.929-10.609,0l-39.799,39.798
			c-17.407-1.636-33.821-6.727-48.552-14.579l175.321-175.32c7.98,15.001,12.943,31.472,14.548,48.583l-84.071,84.072
			c-2.929,2.93-2.929,7.679,0,10.609c1.465,1.464,3.386,2.196,5.305,2.196s3.84-0.732,5.305-2.196l73.736-73.737
			C381.074,329.279,329.295,381.059,264.724,385.361z M484.476,291.177c-9.921,12.101-11.39,28.74-3.742,42.393
			c6.258,11.169,1.818,21.714-3.885,27.351c-5.941,5.874-16.215,9.891-27.233,3.551c-18.852-10.851-43.712-30.415-56.465-62.387
			c2.68-7.954,4.683-16.215,5.946-24.715l42.92,24.85c1.184,0.686,2.475,1.011,3.752,1.011c2.589,0,5.108-1.342,6.498-3.744
			c2.076-3.586,0.852-8.174-2.732-10.249l-44.448-25.734h51.315c4.144,0,7.501-3.357,7.501-7.501c0-4.144-3.357-7.501-7.501-7.501
			h-51.315l44.449-25.734c3.586-2.075,4.81-6.664,2.732-10.249c-2.075-3.585-6.666-4.811-10.249-2.732l-42.917,24.848
			c-1.251-8.444-3.24-16.721-5.936-24.748c12.757-31.952,37.607-51.505,56.451-62.352c11.021-6.339,21.294-2.322,27.233,3.551
			c5.703,5.637,10.143,16.182,3.885,27.351c-7.648,13.652-6.18,30.292,3.742,42.393
			C501.188,241.208,501.188,270.794,484.476,291.177z"/>
	</g>
</g>
<g>
</g>
<g>
</g>
<g>
</g>
<g>
</g>
<g>
</g>
<g>
</g>
<g>
</g>
<g>
</g>
<g>
</g>
<g>
</g>
<g>
</g>
<g>
</g>
<g>
</g>
<g>
</g>
<g>
</g>
</svg>
