<?xml version="1.0" encoding="iso-8859-1"?>
<!-- Generator: Adobe Illustrator 19.0.0, SVG Export Plug-In . SVG Version: 6.00 Build 0)  -->
<svg version="1.1" id="Capa_1" xmlns="http://www.w3.org/2000/svg" xmlns:xlink="http://www.w3.org/1999/xlink" x="0px" y="0px"
	 viewBox="0 0 512.001 512.001" style="enable-background:new 0 0 512.001 512.001;" xml:space="preserve">
<g>
	<g>
		<path d="M243.909,358.832h-0.132c-5.522,0-10,4.477-10,10s4.478,10,10,10h0.132c5.522,0,10-4.477,10-10
			S249.431,358.832,243.909,358.832z"/>
	</g>
</g>
<g>
	<g>
		<path d="M238.182,212h-0.132c-5.522,0-10,4.477-10,10c0,5.523,4.478,10,10,10h0.132c5.522,0,10-4.477,10-10
			C248.182,216.477,243.705,212,238.182,212z"/>
	</g>
</g>
<g>
	<g>
		<path d="M509.055,104.636c-8.277-8.277-16.965-9.653-23.308-10.658c-5.283-0.837-8.472-1.342-12.013-4.883
			c-3.706-3.705-4.333-7.325-5.282-12.805c-1.144-6.604-2.568-14.824-10.259-22.515c-7.711-7.711-16.044-9.21-22.739-10.415
			c-5.97-1.074-9.24-1.79-12.569-5.116c-3.333-3.335-4.049-6.605-5.122-12.575c-1.205-6.695-2.704-15.028-10.415-22.739
			c-2.525-2.525-6.204-3.514-9.653-2.59c-3.449,0.922-6.146,3.613-7.074,7.061l-22.089,82.026
			c-16.75-8.443-35.366-12.91-54.669-12.91c-32.489,0-63.033,12.652-86.007,35.625L112.838,227.158
			c-38.061,38.061-45.567,95.274-22.536,140.9l-82.918,22.56c-5.329,1.45-8.475,6.946-7.024,12.275
			c0.47,1.725,1.367,3.218,2.542,4.404c0.021,0.022,0.04,0.046,0.061,0.068c8.277,8.277,16.965,9.653,23.308,10.658
			c5.283,0.837,8.473,1.342,12.013,4.883c3.706,3.705,4.333,7.325,5.282,12.805c1.144,6.604,2.568,14.824,10.259,22.515
			c7.711,7.711,16.044,9.21,22.739,10.415c5.971,1.074,9.241,1.79,12.57,5.117c3.332,3.334,4.048,6.604,5.121,12.574
			c1.205,6.696,2.704,15.028,10.415,22.74c1.9,1.9,4.454,2.929,7.072,2.929c0.861,0,1.73-0.111,2.585-0.34
			c3.45-0.923,6.146-3.617,7.072-7.067l22.272-82.97c16.881,8.61,35.676,13.172,55.174,13.172c32.489,0,63.033-12.652,86.007-35.625
			l115.017-115.017c22.973-22.973,35.625-53.517,35.625-86.006c0-19.226-4.433-37.769-12.811-54.467l81.951-22.299
			c3.441-0.936,6.11-3.646,7.026-7.092C512.577,110.843,511.577,107.157,509.055,104.636z M241.998,126.283
			c19.195-19.196,44.717-29.767,71.864-29.767c27.146,0,52.669,10.571,71.864,29.767c2.212,2.212,4.304,4.511,6.284,6.884H235.114
			L241.998,126.283z M125.713,411.378l-15.563,57.974c-1.514-3.236-3.671-6.53-6.875-9.737c-7.922-7.915-16.377-9.436-23.171-10.658
			c-5.822-1.047-9.006-1.74-12.139-4.873c-3.066-3.066-3.719-6.15-4.695-11.787c-1.122-6.476-2.658-15.345-10.846-23.533
			c-3.298-3.298-6.671-5.47-9.938-6.969l58.791-15.997c3.478,4.665,7.326,9.139,11.56,13.373c4.143,4.142,8.534,7.943,13.136,11.401
			C125.879,410.835,125.788,411.102,125.713,411.378z M270.71,385.028c-19.195,19.196-44.718,29.767-71.864,29.767
			s-52.669-10.571-71.864-29.767c-2.002-2.003-3.899-4.072-5.699-6.195h86.144c5.522,0,10-4.477,10-10s-4.478-10-10-10H108.05
			c-9.206-18.336-12.516-38.895-9.933-58.833h257.62L270.71,385.028z M414.556,212H284.039c-5.522,0-10,4.477-10,10
			c0,5.523,4.478,10,10,10h125.702c-4.98,14.14-13.102,27.099-24.015,38.012l-9.999,9.998c-0.063-0.001-0.125-0.01-0.189-0.01
			H102.791c4.859-14.148,12.92-27.43,24.19-38.701l9.311-9.311c0.083,0.002,0.164,0.012,0.247,0.012h56.5c5.522,0,10-4.477,10-10
			c0-5.523-4.478-10-10-10H156.28l58.834-58.834h189.935c6.83,13.814,10.445,29.119,10.445,44.98
			C415.494,202.821,415.173,207.446,414.556,212z M414.257,125.245c-0.823,0.224-1.587,0.555-2.297,0.956
			c-3.639-4.94-7.672-9.642-12.091-14.061c-4.284-4.284-8.832-8.208-13.605-11.759c0.062-0.186,0.13-0.369,0.182-0.561
			l15.405-57.208c1.515,3.247,3.676,6.554,6.893,9.772c7.921,7.915,16.376,9.436,23.17,10.658c5.822,1.047,9.006,1.74,12.139,4.873
			c3.066,3.066,3.719,6.15,4.695,11.787c1.122,6.476,2.658,15.345,10.846,23.533c3.292,3.292,6.661,5.476,9.922,6.974
			L414.257,125.245z"/>
	</g>
</g>
<g>
</g>
<g>
</g>
<g>
</g>
<g>
</g>
<g>
</g>
<g>
</g>
<g>
</g>
<g>
</g>
<g>
</g>
<g>
</g>
<g>
</g>
<g>
</g>
<g>
</g>
<g>
</g>
<g>
</g>
</svg>
