<?xml version="1.0" encoding="iso-8859-1"?>
<!-- Generator: Adobe Illustrator 19.0.0, SVG Export Plug-In . SVG Version: 6.00 Build 0)  -->
<svg version="1.1" id="Layer_1" xmlns="http://www.w3.org/2000/svg" xmlns:xlink="http://www.w3.org/1999/xlink" x="0px" y="0px"
	 viewBox="0 0 511.782 511.782" style="enable-background:new 0 0 511.782 511.782;" xml:space="preserve">
<g>
	<g>
		<g>
			<path d="M358.656,144.882h-0.094c-4.71,0-8.482,3.823-8.482,8.533s3.857,8.533,8.576,8.533c4.71,0,8.533-3.823,8.533-8.533
				S363.366,144.882,358.656,144.882z"/>
			<path d="M392.533,281.415c0-4.71-3.823-8.533-8.533-8.533c-4.719,0-8.533,3.823-8.533,8.533
				c0,89.404-80.393,162.133-179.2,162.133c-95.65,0-174.029-68.156-178.953-153.6h17.289
				c5.146,50.799,54.724,136.533,161.664,136.533c113.169,0,162.133-96.06,162.133-145.067c0-4.71-3.823-8.533-8.533-8.533H76.8
				c-4.719,0-8.533,3.823-8.533,8.533s3.814,8.533,8.533,8.533h95.138L105.6,343.017c-3.678,2.944-4.275,8.311-1.331,11.998
				c1.681,2.108,4.164,3.2,6.665,3.2c1.869,0,3.755-0.614,5.325-1.869l71.475-57.173v84.642c0,4.71,3.814,8.533,8.533,8.533
				c4.71,0,8.533-3.823,8.533-8.533v-84.642l71.467,57.173c1.57,1.254,3.456,1.869,5.325,1.869c2.509,0,4.983-1.092,6.673-3.2
				c2.944-3.686,2.338-9.054-1.331-11.998l-66.347-53.069h120.226c-5.163,44.937-49.596,119.467-144.546,119.467
				c-101.265,0-145.067-84.762-145.067-128c0-4.71-3.823-8.533-8.533-8.533H8.533c-4.719,0-8.533,3.823-8.533,8.533
				c0,98.816,88.047,179.2,196.267,179.2S392.533,380.231,392.533,281.415z"/>
			<path d="M375.723,127.815c4.71,0,8.533-3.823,8.533-8.533c0-4.71-3.823-8.533-8.533-8.533h-0.094
				c-4.702,0-8.482,3.823-8.482,8.533C367.147,123.992,371.004,127.815,375.723,127.815z"/>
			<path d="M418.389,170.482c0-4.71-3.823-8.533-8.533-8.533h-0.094c-4.702,0-8.482,3.823-8.482,8.533
				c0,4.71,3.857,8.533,8.576,8.533C414.566,179.015,418.389,175.192,418.389,170.482z"/>
			<path d="M481.818,160.079C430.848,71.785,327.714,30.108,240.102,61.63c-10.897-7.774-25.549-8.678-37.376-1.852
				c-11.827,6.827-18.364,19.959-17.084,33.289c-43.785,36.983-67.661,92.979-65.664,154.487c0.154,4.71,4.156,8.414,8.806,8.26
				c4.71-0.162,8.405-4.096,8.252-8.806c-1.877-57.899,21.146-110.319,63.181-143.829c2.654-2.116,3.797-5.589,2.927-8.866
				c-2.048-7.697,1.289-15.812,8.115-19.755c6.818-3.942,15.531-2.773,21.163,2.85c2.406,2.398,6.007,3.149,9.148,1.894
				c80.811-31.718,177.749,6.656,225.459,89.31c47.718,82.645,32.503,185.788-35.379,239.915c-2.654,2.116-3.806,5.589-2.927,8.866
				c2.039,7.689-1.289,15.821-8.124,19.755c-6.818,3.951-15.522,2.782-21.146-2.842c-2.398-2.398-5.999-3.149-9.148-1.911
				c-20.779,8.158-42.854,11.896-65.715,11.034c-4.335-0.247-8.67,3.499-8.832,8.218c-0.179,4.702,3.499,8.661,8.218,8.841
				c2.304,0.085,4.617,0.128,6.912,0.128c21.018,0,41.455-3.541,60.877-10.53c10.897,7.765,25.532,8.678,37.367,1.843
				c11.836-6.818,18.372-19.959,17.092-33.289C517.308,358.505,532.787,248.365,481.818,160.079z"/>
		</g>
	</g>
</g>
<g>
</g>
<g>
</g>
<g>
</g>
<g>
</g>
<g>
</g>
<g>
</g>
<g>
</g>
<g>
</g>
<g>
</g>
<g>
</g>
<g>
</g>
<g>
</g>
<g>
</g>
<g>
</g>
<g>
</g>
</svg>
