<?xml version="1.0" encoding="iso-8859-1"?>
<!-- Generator: Adobe Illustrator 19.0.0, SVG Export Plug-In . SVG Version: 6.00 Build 0)  -->
<svg version="1.1" id="Capa_1" xmlns="http://www.w3.org/2000/svg" xmlns:xlink="http://www.w3.org/1999/xlink" x="0px" y="0px"
	 viewBox="0 0 511.998 511.998" style="enable-background:new 0 0 511.998 511.998;" xml:space="preserve">
<g>
	<g>
		<path d="M501.905,273.944h-14.354c4.148-27.527,3.596-54.955-1.663-81.706c-0.569-6.255-6.31-73.33,6.154-102.87
			c9.463-22.423,22.422-53.133-0.936-76.491c-21.956-21.959-49.898-11.191-74.549-1.69l-1.646,0.633
			c-18.839,7.251-67.722,8.306-130.76,2.827c-17.149-1.49-33.829-1.207-49.583,0.837c-55.532,7.212-108.547,33.615-149.28,74.348
			c-63.47,63.471-90.091,154.275-69.569,237.123c0.702,6.295,6.412,61.2-3.824,92.092c-0.891,2.687-1.812,5.357-2.727,8.008
			c-8.066,23.385-17.21,49.89,3.882,70.982c10.177,10.176,21.775,13.734,33.429,13.734c16.684,0,33.485-7.293,46.399-12.899
			c34.037-14.776,73.901-11.514,91.123-9.083c30.47,14.532,64.067,22.21,98.852,22.21c44.198,0,87.102-12.56,124.073-36.323
			c4.647-2.987,5.992-9.175,3.006-13.822c-2.987-4.647-9.172-5.994-13.822-3.006c-33.737,21.684-72.901,33.147-113.256,33.147
			c-111.901,0-203.549-87.956-208.812-198.047h22.603c5.237,97.748,86.753,175.672,186.208,175.672
			c99.455,0,180.97-77.924,186.207-175.672h22.608c-1.979,42.135-16.471,81.944-42.207,115.682
			c-3.352,4.392-2.507,10.669,1.885,14.019c4.393,3.352,10.669,2.505,14.019-1.885c30.448-39.914,46.542-87.57,46.542-137.818
			C511.908,278.422,507.428,273.944,501.905,273.944z M282.853,449.616c-88.422,0-160.965-68.953-166.177-155.667h332.351
			C443.816,380.662,371.274,449.616,282.853,449.616z M466.022,194.654c0.032,0.327,0.08,0.652,0.145,0.974
			c5.09,25.593,5.451,51.899,1.119,78.315H63.801c-5.523,0-10.002,4.478-10.002,10.002c0,60.924,23.832,118.2,67.105,161.275
			c8.248,8.21,17.017,15.712,26.227,22.485c-19.41,0.561-41.466,3.809-62.217,12.817c-27.624,11.989-45.005,16.081-57.716,3.369
			c-11.656-11.656-7.258-26.712,0.883-50.313c0.94-2.728,1.889-5.475,2.805-8.24c12.227-36.9,4.945-98.755,4.629-101.369
			c-0.05-0.416-0.126-0.828-0.229-1.234c-19.125-76.241,5.455-160.064,64.149-218.758c37.627-37.627,86.534-62.009,137.711-68.655
			c14.326-1.86,29.56-2.111,45.274-0.746c39.318,3.418,109.747,7.432,139.678-4.086l1.653-0.637
			c25.081-9.666,41.069-14.975,53.21-2.831c11.769,11.768,8.297,26.971-3.349,54.568
			C458.627,117.102,465.714,191.504,466.022,194.654z"/>
	</g>
</g>
<g>
	<g>
		<path d="M438.516,437.701c-3.726-4.077-10.052-4.363-14.13-0.638l-0.668,0.609c-4.092,3.711-4.399,10.037-0.688,14.128
			c1.974,2.177,4.688,3.282,7.411,3.282c2.397,0,4.803-0.856,6.718-2.595l0.719-0.655
			C441.956,448.106,442.242,441.78,438.516,437.701z"/>
	</g>
</g>
<g>
	<g>
		<path d="M357.184,373.309c-25.821-27.51-41.846-44.526-42.866-45.52c-2.883-2.807-7.162-3.614-10.868-2.05
			c-3.705,1.563-6.113,5.194-6.113,9.215v63.257c-0.001,9.229,4.586,17.781,12.27,22.878c4.59,3.046,9.886,4.599,15.224,4.599
			c3.637,0,7.293-0.721,10.759-2.184c5.301-2.237,10.412-4.762,15.192-7.505c7.358-4.224,12.295-11.454,13.544-19.838
			C365.572,387.802,362.969,379.472,357.184,373.309z M344.538,393.212c-0.342,2.296-1.696,4.278-3.717,5.437
			c-4.077,2.34-8.454,4.501-13.01,6.424c-3.399,1.432-6.13,0.02-7.147-0.654c-1-0.663-3.325-2.596-3.325-6.207v-38.096h0.001
			c6.045,6.427,14.215,15.122,25.257,26.884C344.75,389.293,344.738,391.877,344.538,393.212z"/>
	</g>
</g>
<g>
	<g>
		<path d="M422.396,315.743c-5.104-7.58-13.603-12.123-22.734-12.153c-59.191-0.194-66.439,0.093-66.719,0.105
			c-4.015,0.176-7.534,2.739-8.935,6.505c-1.401,3.766-0.413,8.005,2.51,10.763l46.694,44.061c5.14,4.85,11.883,7.504,18.865,7.504
			c1.012,0,2.029-0.056,3.047-0.168c8.022-0.889,15.208-5.232,19.718-11.917c4.203-6.23,7.656-12.678,10.263-19.163
			C428.497,332.844,427.483,323.298,422.396,315.743z M406.543,333.817c-2.081,5.179-4.869,10.372-8.285,15.436
			c-1.669,2.474-4.062,3.081-5.338,3.222c-1.289,0.143-3.781,0.073-5.979-2.001l-28.555-26.944
			c9.618-0.006,22.906,0.006,41.21,0.066c3.592,0.012,5.537,2.328,6.207,3.322C406.464,327.899,407.862,330.539,406.543,333.817z"/>
	</g>
</g>
<g>
	<g>
		<path d="M265.551,327.741c-3.705-1.563-7.987-0.756-10.868,2.05c-1.021,0.994-17.045,18.01-42.866,45.52
			c-5.787,6.162-8.39,14.492-7.143,22.852c1.249,8.384,6.188,15.615,13.545,19.838c4.777,2.743,9.889,5.268,15.192,7.506
			c3.465,1.461,7.121,2.182,10.758,2.182c5.338,0,10.635-1.553,15.226-4.6c7.683-5.097,12.27-13.649,12.27-22.876v-63.257
			C271.664,332.934,269.256,329.304,265.551,327.741z M251.659,400.213c0,3.611-2.325,5.543-3.325,6.208
			c-1.017,0.674-3.749,2.089-7.147,0.654c-4.557-1.922-8.934-4.084-13.01-6.424c-2.02-1.16-3.376-3.142-3.718-5.438
			c-0.198-1.335-0.211-3.918,1.941-6.211c11.042-11.764,19.213-20.459,25.258-26.884V400.213z"/>
	</g>
</g>
<g>
	<g>
		<path d="M244.991,312.201c-1.401-3.766-4.92-6.328-8.935-6.505c-0.28-0.013-7.535-0.3-66.718-0.105
			c-9.132,0.03-17.631,4.573-22.734,12.153c-5.088,7.554-6.101,17.1-2.71,25.536c2.607,6.485,6.06,12.932,10.264,19.164
			c4.509,6.684,11.696,11.027,19.717,11.916c1.018,0.113,2.034,0.168,3.047,0.168c6.983,0,13.727-2.654,18.867-7.504l46.693-44.06
			C245.404,320.206,246.392,315.967,244.991,312.201z M182.058,352.474c-2.198,2.074-4.695,2.144-5.979,2.001
			c-1.277-0.142-3.67-0.748-5.338-3.222c-3.417-5.064-6.204-10.257-8.286-15.436c-1.317-3.278,0.08-5.917,0.741-6.9
			c0.67-0.995,2.617-3.311,6.208-3.323c15.044-0.049,26.693-0.068,35.706-0.068c1.956,0,3.787,0.001,5.502,0.002L182.058,352.474z"
			/>
	</g>
</g>
<g>
	<g>
		<path d="M289.929,306.45c-1.87-1.86-4.44-2.931-7.071-2.931c-2.642,0-5.222,1.07-7.082,2.931c-1.86,1.87-2.932,4.441-2.932,7.072
			c0,2.631,1.07,5.211,2.932,7.072c1.859,1.87,4.44,2.931,7.082,2.931c2.631,0,5.2-1.06,7.071-2.931
			c1.86-1.86,2.932-4.431,2.932-7.072C292.86,310.891,291.79,308.31,289.929,306.45z"/>
	</g>
</g>
<g>
	<g>
		<path d="M297.333,59.961h-0.251c-5.523,0-10.002,4.478-10.002,10.002c0,5.524,4.479,10.002,10.002,10.002h0.251
			c5.523,0,10.002-4.478,10.002-10.002C307.336,64.439,302.857,59.961,297.333,59.961z"/>
	</g>
</g>
<g>
	<g>
		<path d="M329.303,119.642h-0.251c-5.523,0-10.002,4.478-10.002,10.002c0,5.524,4.479,10.002,10.002,10.002h0.251
			c5.523,0,10.002-4.478,10.002-10.002C339.305,124.12,334.826,119.642,329.303,119.642z"/>
	</g>
</g>
<g>
	<g>
		<path d="M376.959,71.987h-0.251c-5.523,0-10.002,4.478-10.002,10.002c0,5.524,4.478,10.002,10.002,10.002h0.251
			c5.523,0,10.002-4.478,10.002-10.002C386.962,76.465,382.483,71.987,376.959,71.987z"/>
	</g>
</g>
<g>
	<g>
		<path d="M81.01,199.973c-5.22-1.823-10.921,0.929-12.741,6.144l-0.379,1.092c-1.792,5.227,0.989,10.917,6.214,12.709
			c1.075,0.369,2.171,0.544,3.248,0.544c4.154,0,8.036-2.609,9.46-6.759l0.342-0.99C88.976,207.499,86.225,201.795,81.01,199.973z"
			/>
	</g>
</g>
<g>
	<g>
		<path d="M245.484,73.868c-0.904-5.448-6.054-9.134-11.507-8.227c-42.596,7.08-83.344,28.268-114.736,59.66
			C106.97,137.571,96.207,151.265,87.246,166c-2.872,4.72-1.371,10.874,3.349,13.743c1.623,0.987,3.416,1.457,5.187,1.457
			c3.378,0,6.674-1.71,8.557-4.807c8.131-13.373,17.903-25.804,29.047-36.947c28.467-28.467,65.356-47.67,103.871-54.072
			C242.706,84.469,246.39,79.317,245.484,73.868z"/>
	</g>
</g>
<g>
</g>
<g>
</g>
<g>
</g>
<g>
</g>
<g>
</g>
<g>
</g>
<g>
</g>
<g>
</g>
<g>
</g>
<g>
</g>
<g>
</g>
<g>
</g>
<g>
</g>
<g>
</g>
<g>
</g>
</svg>
